<?xml version="1.0" encoding="UTF-8"?>
<svg id="Layer_2" data-name="Layer 2" xmlns="http://www.w3.org/2000/svg" viewBox="0 0 284.99 283.99">
  <defs>
    <style>
      .cls-1 {
        fill: #153354;
      }
    </style>
  </defs>
  <g id="Ebene_1" data-name="Ebene 1">
    <path class="cls-1" d="M0,0v283.99h284.99V0H0ZM178.22,29.01c31.96,8.62,58.51,30.41,73.48,59.18l-23.51,12.57c-11.42-22.16-31.73-39.01-56.21-45.82l6.23-25.93ZM220.99,104.24l-23.43,12.25c-6.89-13.24-19.07-23.41-33.67-27.82l6.23-25.95c22.12,6.25,40.48,21.49,50.87,41.51ZM154.93,86.75c-2.4-.31-4.84-.48-7.33-.48-11.8,0-22.75,3.65-31.78,9.89l-16.46-21c13.57-9.78,30.23-15.54,48.24-15.54,4.32,0,8.56.33,12.71.97l-5.38,26.16ZM162.01,96.47c12.21,3.83,22.31,12.42,28.15,23.59l-21.72,11.39c-2.59-4.99-6.92-8.93-12.18-11.02l5.76-23.96ZM130.04,126.7c-2.83,3.19-4.8,7.17-5.56,11.56l-24.66-.36c1.06-11.81,6.4-22.38,14.45-30.17l15.77,18.96ZM120.77,102.47c7.66-5.18,16.89-8.21,26.83-8.21,1.93,0,3.84.12,5.71.34l-4.98,24.2h-.73c-4.23-.01-8.2,1.1-11.63,3.07l-15.21-19.4ZM124.44,145.95c.72,4.5,2.71,8.58,5.6,11.84l-15.6,19.12c-8.2-7.84-13.62-18.57-14.64-30.55l24.64-.4ZM136.04,162.65c3.41,1.94,7.36,3.05,11.57,3.05l.99-.02,5.15,24.15c-2.01.26-4.06.39-6.14.39-9.82,0-18.94-2.95-26.55-8.01l14.98-19.56ZM109.15,101.58c-9.77,9.25-16.22,21.98-17.34,36.21l-26.69-.38c1.29-22.31,11.42-42.25,26.96-56.35l17.06,20.52ZM91.79,146.49c1.09,14.42,7.63,27.32,17.58,36.63l-16.88,20.68c-15.8-14.16-26.12-34.3-27.38-56.87l26.68-.44ZM116.18,188.56c8.96,6.09,19.78,9.64,31.42,9.64,2.65,0,5.26-.18,7.81-.54l5.57,26.12c-4.36.7-8.83,1.07-13.38,1.07-17.75,0-34.19-5.59-47.65-15.11l16.22-21.18ZM156.49,163.89c3.13-1.32,5.93-3.29,8.2-5.69l28.13.17c-4.99,13.94-16.25,24.92-30.39,29.51l-5.95-23.99ZM147.61,24.97c6.71,0,13.29.56,19.7,1.65l-5.38,26.13c-4.66-.74-9.45-1.13-14.32-1.13-19.87,0-38.24,6.39-53.18,17.23l-16.45-20.99c19.47-14.39,43.55-22.9,69.63-22.9ZM69.91,54.4l17.05,20.5c-17.26,15.56-28.51,37.65-29.84,62.39l-26.67-.38c1.47-32.82,16.42-62.13,39.46-82.51ZM30.45,147.5l26.66-.44c1.31,25.02,12.76,47.34,30.32,62.94l-16.86,20.66c-23.43-20.42-38.66-50-40.12-83.16ZM147.61,259.51c-25.67,0-49.42-8.25-68.73-22.24l16.22-21.16c14.82,10.55,32.94,16.76,52.51,16.76,5.13,0,10.15-.43,15.05-1.25l5.56,26.09c-6.7,1.18-13.58,1.8-20.61,1.8ZM164.36,195.66c11.95-3.74,22.18-11.37,29.19-21.41h30.39c-9.56,22.8-29.11,40.35-53.16,47.33l-6.43-25.92ZM179.12,255.22l-6.42-25.89c21.81-6.27,40.25-20.5,51.96-39.35l30.03.18c-14.13,31.51-41.78,55.66-75.57,65.06Z"/>
  </g>
</svg>