<svg xmlns="http://www.w3.org/2000/svg" viewBox="0 0 48.08 52.49">
  <g fill="#444444" stroke="none">
  <polygon points="44.03,2.00 26.10,4.22 26.10,2.00"/>
  <polygon points="26.10,4.22 44.03,2.00 28.18,6.45"/>
  <polygon points="26.10,4.22 28.18,6.45 26.36,39.53"/>
  <polygon points="28.18,6.45 44.03,2.00 30.83,6.45"/>
  <polygon points="30.83,6.45 44.03,2.00 30.83,9.10"/>
  <polygon points="30.83,9.10 44.03,2.00 35.23,15.63"/>
  <polygon points="30.83,9.10 35.23,15.63 32.99,20.04"/>
  <polygon points="30.83,9.10 32.99,20.04 30.94,33.10"/>
  <polygon points="35.23,15.63 44.03,2.00 44.03,4.22"/>
  <polygon points="35.23,15.63 44.03,4.22 46.08,15.63"/>
  <polygon points="46.08,15.63 44.03,4.22 46.08,4.22"/>
  <polygon points="32.99,20.04 35.23,17.31 41.72,20.04"/>
  <polygon points="35.23,17.31 32.99,20.04 35.23,15.63"/>
  <polygon points="41.72,20.04 35.23,17.31 41.72,17.31"/>
  <polygon points="37.40,23.94 32.99,26.58 32.99,23.94"/>
  <polygon points="32.99,26.58 37.40,23.94 34.69,26.58"/>
  <polygon points="34.69,26.58 37.40,23.94 34.69,28.72"/>
  <polygon points="34.69,28.72 37.40,23.94 37.40,28.72"/>
  <polygon points="32.99,20.04 32.99,33.10 30.94,33.10"/>
  <polygon points="32.99,33.10 32.99,20.04 32.99,23.94"/>
  <polygon points="32.99,33.10 32.99,23.94 32.99,26.58"/>
  <polygon points="30.83,9.10 28.55,37.45 28.18,9.10"/>
  <polygon points="28.55,37.45 30.83,9.10 30.94,37.45"/>
  <polygon points="30.94,37.45 30.83,9.10 30.94,33.10"/>
  <polygon points="26.36,39.53 28.18,9.10 28.55,39.53"/>
  <polygon points="28.18,9.10 26.36,39.53 28.18,6.45"/>
  <polygon points="28.55,39.53 28.18,9.10 28.55,37.45"/>
  <polygon points="15.17,26.02 12.93,28.21 12.93,26.02"/>
  <polygon points="12.93,28.21 15.17,26.02 12.93,41.72"/>
  <polygon points="12.93,41.72 15.17,26.02 12.93,50.49"/>
  <polygon points="12.93,50.49 15.17,26.02 15.52,48.01"/>
  <polygon points="12.93,50.49 15.52,48.01 17.62,50.49"/>
  <polygon points="15.52,48.01 15.17,26.02 15.52,46.13"/>
  <polygon points="17.62,50.49 15.52,48.01 17.62,48.01"/>
  <polygon points="4.65,19.58 2.00,32.96 2.00,19.58"/>
  <polygon points="2.00,32.96 4.65,19.58 4.22,32.96"/>
  <polygon points="4.22,32.96 4.65,19.58 4.22,35.15"/>
  <polygon points="4.22,35.15 4.65,19.58 4.65,23.94"/>
  <polygon points="4.22,35.15 4.65,23.94 6.41,35.15"/>
  <polygon points="6.41,35.15 4.65,23.94 6.95,23.94"/>
  <polygon points="6.41,35.15 6.95,23.94 6.41,37.37"/>
  <polygon points="6.41,37.37 6.95,23.94 6.95,26.02"/>
  <polygon points="6.41,37.37 6.95,26.02 8.66,37.37"/>
  <polygon points="8.66,37.37 6.95,26.02 8.94,26.02"/>
  <polygon points="8.66,37.37 8.94,26.02 8.66,39.56"/>
  <polygon points="8.66,39.56 8.94,26.02 8.94,28.21"/>
  <polygon points="8.66,39.56 8.94,28.21 10.88,39.56"/>
  <polygon points="10.88,39.56 8.94,28.21 12.93,28.21"/>
  <polygon points="10.88,39.56 12.93,28.21 10.88,41.72"/>
  <polygon points="10.88,41.72 12.93,28.21 12.93,41.72"/>
  <polygon points="26.10,4.22 23.80,19.53 23.80,4.22"/>
  <polygon points="23.80,19.53 26.10,4.22 23.91,44.00"/>
  <polygon points="23.91,44.00 26.10,4.22 23.91,50.49"/>
  <polygon points="23.91,50.49 26.10,4.22 26.36,48.07"/>
  <polygon points="23.91,50.49 26.36,48.07 28.55,50.49"/>
  <polygon points="26.36,48.07 26.10,4.22 26.36,39.53"/>
  <polygon points="28.55,50.49 26.36,48.07 28.55,48.07"/>
  <polygon points="23.80,19.53 21.72,21.75 21.72,19.53"/>
  <polygon points="21.72,21.75 23.80,19.53 21.72,41.81"/>
  <polygon points="21.72,41.81 23.80,19.53 21.72,44.00"/>
  <polygon points="21.72,44.00 23.80,19.53 23.91,44.00"/>
  <polygon points="21.72,21.75 18.42,23.94 18.42,21.75"/>
  <polygon points="18.42,23.94 21.72,21.75 19.93,41.81"/>
  <polygon points="19.93,41.81 21.72,21.75 21.72,41.81"/>
  <polygon points="18.42,23.94 15.17,26.02 15.17,23.94"/>
  <polygon points="15.17,26.02 18.42,23.94 15.52,46.13"/>
  <polygon points="15.52,46.13 18.42,23.94 17.62,44.00"/>
  <polygon points="17.62,44.00 18.42,23.94 19.93,44.00"/>
  <polygon points="19.93,44.00 18.42,23.94 19.93,41.81"/>
  <polygon points="17.62,46.13 15.52,46.13 17.62,44.00"/>
  <polygon points="12.93,41.72 10.88,39.56 10.88,41.72"/>
  <polygon points="10.88,39.56 8.66,37.37 8.66,39.56"/>
  <polygon points="8.66,37.37 10.88,39.56 8.94,28.21"/>
  <polygon points="8.94,28.21 10.88,39.56 12.93,28.21"/>
  <polygon points="12.93,28.21 10.88,39.56 12.93,41.72"/>
  <polygon points="12.93,50.49 15.52,48.01 12.93,41.72"/>
  <polygon points="15.52,48.01 12.93,50.49 17.62,50.49"/>
  <polygon points="12.93,41.72 15.52,48.01 12.93,28.21"/>
  <polygon points="12.93,28.21 15.52,48.01 12.93,26.02"/>
  <polygon points="12.93,26.02 15.52,48.01 15.17,26.02"/>
  <polygon points="15.17,26.02 15.52,48.01 15.17,23.94"/>
  <polygon points="15.52,48.01 17.62,50.49 17.62,48.01"/>
  <polygon points="23.91,50.49 26.36,48.07 23.91,44.00"/>
  <polygon points="26.36,48.07 23.91,50.49 28.55,50.49"/>
  <polygon points="23.91,44.00 26.36,48.07 26.10,4.22"/>
  <polygon points="26.10,4.22 26.36,48.07 26.10,2.00"/>
  <polygon points="26.36,48.07 28.55,50.49 28.55,48.07"/>
  <polygon points="28.55,39.53 28.18,9.10 26.36,39.53"/>
  <polygon points="28.18,9.10 28.55,39.53 28.55,37.45"/>
  <polygon points="28.18,9.10 28.55,37.45 30.83,9.10"/>
  <polygon points="30.83,9.10 28.55,37.45 30.94,37.45"/>
  <polygon points="30.83,9.10 30.94,37.45 30.83,6.45"/>
  <polygon points="37.40,28.72 34.69,26.58 34.69,28.72"/>
  <polygon points="34.69,26.58 32.99,23.94 32.99,26.58"/>
  <polygon points="32.99,23.94 34.69,26.58 37.40,23.94"/>
  <polygon points="37.40,23.94 34.69,26.58 37.40,28.72"/>
  <polygon points="41.72,20.04 35.23,17.31 32.99,20.04"/>
  <polygon points="35.23,17.31 41.72,20.04 41.72,17.31"/>
  <polygon points="46.08,15.63 44.03,4.22 35.23,15.63"/>
  <polygon points="44.03,4.22 46.08,15.63 46.08,4.22"/>
  <polygon points="26.10,2.00 28.18,6.45 44.03,2.00"/>
  <polygon points="28.18,6.45 26.10,2.00 26.36,39.53"/>
  <polygon points="26.36,39.53 26.10,2.00 26.36,48.07"/>
  <polygon points="28.18,6.45 26.36,39.53 28.18,9.10"/>
  <polygon points="44.03,2.00 28.18,6.45 30.83,6.45"/>
  <polygon points="44.03,2.00 30.83,6.45 35.23,15.63"/>
  <polygon points="35.23,15.63 30.83,6.45 32.99,20.04"/>
  <polygon points="32.99,20.04 30.83,6.45 30.94,33.10"/>
  <polygon points="30.94,33.10 30.83,6.45 30.94,37.45"/>
  <polygon points="32.99,20.04 30.94,33.10 32.99,33.10"/>
  <polygon points="32.99,20.04 32.99,33.10 32.99,26.58"/>
  <polygon points="32.99,20.04 32.99,26.58 32.99,23.94"/>
  <polygon points="35.23,15.63 32.99,20.04 35.23,17.31"/>
  <polygon points="44.03,2.00 35.23,15.63 44.03,4.22"/>
  <polygon points="23.91,44.00 21.72,41.81 21.72,44.00"/>
  <polygon points="21.72,41.81 23.91,44.00 21.72,21.75"/>
  <polygon points="21.72,21.75 23.91,44.00 21.72,19.53"/>
  <polygon points="21.72,19.53 23.91,44.00 23.80,19.53"/>
  <polygon points="23.80,19.53 23.91,44.00 23.80,4.22"/>
  <polygon points="23.80,4.22 23.91,44.00 26.10,4.22"/>
  <polygon points="15.17,23.94 15.52,46.13 18.42,23.94"/>
  <polygon points="15.52,46.13 15.17,23.94 15.52,48.01"/>
  <polygon points="18.42,23.94 15.52,46.13 17.62,44.00"/>
  <polygon points="17.62,44.00 15.52,46.13 17.62,46.13"/>
  <polygon points="18.42,23.94 17.62,44.00 19.93,44.00"/>
  <polygon points="18.42,23.94 19.93,44.00 18.42,21.75"/>
  <polygon points="18.42,21.75 19.93,44.00 19.93,41.81"/>
  <polygon points="18.42,21.75 19.93,41.81 21.72,21.75"/>
  <polygon points="21.72,21.75 19.93,41.81 21.72,41.81"/>
  <polygon points="8.66,37.37 6.41,35.15 6.41,37.37"/>
  <polygon points="6.41,35.15 8.66,37.37 6.95,26.02"/>
  <polygon points="6.95,26.02 8.66,37.37 8.94,26.02"/>
  <polygon points="8.94,26.02 8.66,37.37 8.94,28.21"/>
  <polygon points="6.41,35.15 4.22,32.96 4.22,35.15"/>
  <polygon points="4.22,32.96 6.41,35.15 4.65,23.94"/>
  <polygon points="4.65,23.94 6.41,35.15 6.95,23.94"/>
  <polygon points="6.95,23.94 6.41,35.15 6.95,26.02"/>
  <polygon points="4.22,32.96 2.00,19.58 2.00,32.96"/>
  <polygon points="2.00,19.58 4.22,32.96 4.65,19.58"/>
  <polygon points="4.65,19.58 4.22,32.96 4.65,23.94"/>
  <polygon points="17.62,48.01 17.62,50.49 17.62,50.49"/>
  <polygon points="17.62,50.49 17.62,48.01 17.62,48.01"/>
  <polygon points="17.62,50.49 12.93,50.49 17.62,50.49"/>
  <polygon points="12.93,50.49 17.62,50.49 12.93,50.49"/>
  <polygon points="12.93,41.72 12.93,50.49 12.93,50.49"/>
  <polygon points="12.93,50.49 12.93,41.72 12.93,41.72"/>
  <polygon points="12.93,41.72 10.88,41.72 12.93,41.72"/>
  <polygon points="10.88,41.72 12.93,41.72 10.88,41.72"/>
  <polygon points="10.88,39.56 10.88,41.72 10.88,41.72"/>
  <polygon points="10.88,41.72 10.88,39.56 10.88,39.56"/>
  <polygon points="10.88,39.56 8.66,39.56 10.88,39.56"/>
  <polygon points="8.66,39.56 10.88,39.56 8.66,39.56"/>
  <polygon points="8.66,37.37 8.66,39.56 8.66,39.56"/>
  <polygon points="8.66,39.56 8.66,37.37 8.66,37.37"/>
  <polygon points="8.66,37.37 6.41,37.37 8.66,37.37"/>
  <polygon points="6.41,37.37 8.66,37.37 6.41,37.37"/>
  <polygon points="6.41,35.15 6.41,37.37 6.41,37.37"/>
  <polygon points="6.41,37.37 6.41,35.15 6.41,35.15"/>
  <polygon points="6.41,35.15 4.22,35.15 6.41,35.15"/>
  <polygon points="4.22,35.15 6.41,35.15 4.22,35.15"/>
  <polygon points="4.22,32.96 4.22,35.15 4.22,35.15"/>
  <polygon points="4.22,35.15 4.22,32.96 4.22,32.96"/>
  <polygon points="4.22,32.96 2.00,32.96 4.22,32.96"/>
  <polygon points="2.00,32.96 4.22,32.96 2.00,32.96"/>
  <polygon points="2.00,19.58 2.00,32.96 2.00,32.96"/>
  <polygon points="2.00,32.96 2.00,19.58 2.00,19.58"/>
  <polygon points="2.00,19.58 4.65,19.58 2.00,19.58"/>
  <polygon points="4.65,19.58 2.00,19.58 4.65,19.58"/>
  <polygon points="4.65,19.58 4.65,23.94 4.65,23.94"/>
  <polygon points="4.65,23.94 4.65,19.58 4.65,19.58"/>
  <polygon points="4.65,23.94 6.95,23.94 4.65,23.94"/>
  <polygon points="6.95,23.94 4.65,23.94 6.95,23.94"/>
  <polygon points="6.95,23.94 6.95,26.02 6.95,26.02"/>
  <polygon points="6.95,26.02 6.95,23.94 6.95,23.94"/>
  <polygon points="6.95,26.02 8.94,26.02 6.95,26.02"/>
  <polygon points="8.94,26.02 6.95,26.02 8.94,26.02"/>
  <polygon points="8.94,26.02 8.94,28.21 8.94,28.21"/>
  <polygon points="8.94,28.21 8.94,26.02 8.94,26.02"/>
  <polygon points="8.94,28.21 12.93,28.21 8.94,28.21"/>
  <polygon points="12.93,28.21 8.94,28.21 12.93,28.21"/>
  <polygon points="12.93,26.02 12.93,28.21 12.93,28.21"/>
  <polygon points="12.93,28.21 12.93,26.02 12.93,26.02"/>
  <polygon points="12.93,26.02 15.17,26.02 12.93,26.02"/>
  <polygon points="15.17,26.02 12.93,26.02 15.17,26.02"/>
  <polygon points="15.17,23.94 15.17,26.02 15.17,26.02"/>
  <polygon points="15.17,26.02 15.17,23.94 15.17,23.94"/>
  <polygon points="15.17,23.94 18.42,23.94 15.17,23.94"/>
  <polygon points="18.42,23.94 15.17,23.94 18.42,23.94"/>
  <polygon points="18.42,21.75 18.42,23.94 18.42,23.94"/>
  <polygon points="18.42,23.94 18.42,21.75 18.42,21.75"/>
  <polygon points="18.42,21.75 21.72,21.75 18.42,21.75"/>
  <polygon points="21.72,21.75 18.42,21.75 21.72,21.75"/>
  <polygon points="21.72,19.53 21.72,21.75 21.72,21.75"/>
  <polygon points="21.72,21.75 21.72,19.53 21.72,19.53"/>
  <polygon points="21.72,19.53 23.80,19.53 21.72,19.53"/>
  <polygon points="23.80,19.53 21.72,19.53 23.80,19.53"/>
  <polygon points="23.80,4.22 23.80,19.53 23.80,19.53"/>
  <polygon points="23.80,19.53 23.80,4.22 23.80,4.22"/>
  <polygon points="23.80,4.22 26.10,4.22 23.80,4.22"/>
  <polygon points="26.10,4.22 23.80,4.22 26.10,4.22"/>
  <polygon points="26.10,2.00 26.10,4.22 26.10,4.22"/>
  <polygon points="26.10,4.22 26.10,2.00 26.10,2.00"/>
  <polygon points="26.10,2.00 44.03,2.00 26.10,2.00"/>
  <polygon points="44.03,2.00 26.10,2.00 44.03,2.00"/>
  <polygon points="44.03,2.00 44.03,4.22 44.03,4.22"/>
  <polygon points="44.03,4.22 44.03,2.00 44.03,2.00"/>
  <polygon points="44.03,4.22 46.08,4.22 44.03,4.22"/>
  <polygon points="46.08,4.22 44.03,4.22 46.08,4.22"/>
  <polygon points="46.08,4.22 46.08,15.63 46.08,15.63"/>
  <polygon points="46.08,15.63 46.08,4.22 46.08,4.22"/>
  <polygon points="46.08,15.63 35.23,15.63 46.08,15.63"/>
  <polygon points="35.23,15.63 46.08,15.63 35.23,15.63"/>
  <polygon points="35.23,15.63 35.23,17.31 35.23,17.31"/>
  <polygon points="35.23,17.31 35.23,15.63 35.23,15.63"/>
  <polygon points="35.23,17.31 41.72,17.31 35.23,17.31"/>
  <polygon points="41.72,17.31 35.23,17.31 41.72,17.31"/>
  <polygon points="41.72,17.31 41.72,20.04 41.72,20.04"/>
  <polygon points="41.72,20.04 41.72,17.31 41.72,17.31"/>
  <polygon points="41.72,20.04 32.99,20.04 41.72,20.04"/>
  <polygon points="32.99,20.04 41.72,20.04 32.99,20.04"/>
  <polygon points="32.99,20.04 32.99,23.94 32.99,23.94"/>
  <polygon points="32.99,23.94 32.99,20.04 32.99,20.04"/>
  <polygon points="32.99,23.94 37.40,23.94 32.99,23.94"/>
  <polygon points="37.40,23.94 32.99,23.94 37.40,23.94"/>
  <polygon points="37.40,23.94 37.40,28.72 37.40,28.72"/>
  <polygon points="37.40,28.72 37.40,23.94 37.40,23.94"/>
  <polygon points="37.40,28.72 34.69,28.72 37.40,28.72"/>
  <polygon points="34.69,28.72 37.40,28.72 34.69,28.72"/>
  <polygon points="34.69,26.58 34.69,28.72 34.69,28.72"/>
  <polygon points="34.69,28.72 34.69,26.58 34.69,26.58"/>
  <polygon points="34.69,26.58 32.99,26.58 34.69,26.58"/>
  <polygon points="32.99,26.58 34.69,26.58 32.99,26.58"/>
  <polygon points="32.99,26.58 32.99,33.10 32.99,33.10"/>
  <polygon points="32.99,33.10 32.99,26.58 32.99,26.58"/>
  <polygon points="32.99,33.10 30.94,33.10 32.99,33.10"/>
  <polygon points="30.94,33.10 32.99,33.10 30.94,33.10"/>
  <polygon points="30.94,33.10 30.94,37.45 30.94,37.45"/>
  <polygon points="30.94,37.45 30.94,33.10 30.94,33.10"/>
  <polygon points="30.94,37.45 28.55,37.45 30.94,37.45"/>
  <polygon points="28.55,37.45 30.94,37.45 28.55,37.45"/>
  <polygon points="28.55,37.45 28.55,39.53 28.55,39.53"/>
  <polygon points="28.55,39.53 28.55,37.45 28.55,37.45"/>
  <polygon points="28.55,39.53 26.36,39.53 28.55,39.53"/>
  <polygon points="26.36,39.53 28.55,39.53 26.36,39.53"/>
  <polygon points="26.36,39.53 26.36,48.07 26.36,48.07"/>
  <polygon points="26.36,48.07 26.36,39.53 26.36,39.53"/>
  <polygon points="26.36,48.07 28.55,48.07 26.36,48.07"/>
  <polygon points="28.55,48.07 26.36,48.07 28.55,48.07"/>
  <polygon points="28.55,48.07 28.55,50.49 28.55,50.49"/>
  <polygon points="28.55,50.49 28.55,48.07 28.55,48.07"/>
  <polygon points="28.55,50.49 23.91,50.49 28.55,50.49"/>
  <polygon points="23.91,50.49 28.55,50.49 23.91,50.49"/>
  <polygon points="23.91,44.00 23.91,50.49 23.91,50.49"/>
  <polygon points="23.91,50.49 23.91,44.00 23.91,44.00"/>
  <polygon points="23.91,44.00 21.72,44.00 23.91,44.00"/>
  <polygon points="21.72,44.00 23.91,44.00 21.72,44.00"/>
  <polygon points="21.72,41.81 21.72,44.00 21.72,44.00"/>
  <polygon points="21.72,44.00 21.72,41.81 21.72,41.81"/>
  <polygon points="21.72,41.81 19.93,41.81 21.72,41.81"/>
  <polygon points="19.93,41.81 21.72,41.81 19.93,41.81"/>
  <polygon points="19.93,41.81 19.93,44.00 19.93,44.00"/>
  <polygon points="19.93,44.00 19.93,41.81 19.93,41.81"/>
  <polygon points="19.93,44.00 17.62,44.00 19.93,44.00"/>
  <polygon points="17.62,44.00 19.93,44.00 17.62,44.00"/>
  <polygon points="17.62,44.00 17.62,46.13 17.62,46.13"/>
  <polygon points="17.62,46.13 17.62,44.00 17.62,44.00"/>
  <polygon points="17.62,46.13 15.52,46.13 17.62,46.13"/>
  <polygon points="15.52,46.13 17.62,46.13 15.52,46.13"/>
  <polygon points="15.52,46.13 15.52,48.01 15.52,48.01"/>
  <polygon points="15.52,48.01 15.52,46.13 15.52,46.13"/>
  <polygon points="15.52,48.01 17.62,48.01 15.52,48.01"/>
  <polygon points="17.62,48.01 15.52,48.01 17.62,48.01"/>
  <polygon points="28.18,6.45 28.18,9.10 28.18,9.10"/>
  <polygon points="28.18,9.10 28.18,6.45 28.18,6.45"/>
  <polygon points="28.18,9.10 30.83,9.10 28.18,9.10"/>
  <polygon points="30.83,9.10 28.18,9.10 30.83,9.10"/>
  <polygon points="30.83,6.45 30.83,9.10 30.83,9.10"/>
  <polygon points="30.83,9.10 30.83,6.45 30.83,6.45"/>
  <polygon points="30.83,6.45 28.18,6.45 30.83,6.45"/>
  <polygon points="28.18,6.45 30.83,6.45 28.18,6.45"/>
  </g>
</svg>